<svg xmlns="http://www.w3.org/2000/svg" xmlns:xlink="http://www.w3.org/1999/xlink" width="160" zoomAndPan="magnify" viewBox="0 0 120 34.499999" height="46" preserveAspectRatio="xMidYMid meet" version="1.0"><defs><g/></defs><g fill="#5e17eb" fill-opacity="1"><g transform="translate(0.606549, 23.555453)"><g><path d="M 0.8125 0 L 0.75 -19.59375 L 10.1875 -12.453125 L 19.625 -19.59375 L 19.671875 0 Z M 0.8125 0 "/></g></g></g><g fill="#5e17eb" fill-opacity="1"><g transform="translate(21.032147, 23.555453)"><g><path d="M 10.328125 -19.515625 C 11.710938 -19.515625 13.007812 -19.253906 14.21875 -18.734375 C 15.425781 -18.210938 16.492188 -17.488281 17.421875 -16.5625 C 18.347656 -15.632812 19.070312 -14.5625 19.59375 -13.34375 C 20.113281 -12.132812 20.375 -10.835938 20.375 -9.453125 C 20.375 -8.078125 20.113281 -6.78125 19.59375 -5.5625 C 19.070312 -4.351562 18.347656 -3.285156 17.421875 -2.359375 C 16.492188 -1.429688 15.425781 -0.707031 14.21875 -0.1875 C 13.007812 0.332031 11.710938 0.59375 10.328125 0.59375 C 8.941406 0.59375 7.640625 0.332031 6.421875 -0.1875 C 5.210938 -0.707031 4.144531 -1.429688 3.21875 -2.359375 C 2.289062 -3.285156 1.566406 -4.351562 1.046875 -5.5625 C 0.523438 -6.78125 0.265625 -8.078125 0.265625 -9.453125 C 0.265625 -10.835938 0.523438 -12.132812 1.046875 -13.34375 C 1.566406 -14.5625 2.289062 -15.632812 3.21875 -16.5625 C 4.144531 -17.488281 5.210938 -18.210938 6.421875 -18.734375 C 7.640625 -19.253906 8.941406 -19.515625 10.328125 -19.515625 Z M 10.328125 -19.515625 "/></g></g></g><g fill="#5e17eb" fill-opacity="1"><g transform="translate(41.808054, 23.555453)"><g><path d="M 3.203125 -16.46875 C 4.171875 -17.4375 5.257812 -18.160156 6.46875 -18.640625 C 7.6875 -19.128906 8.9375 -19.375 10.21875 -19.375 C 11.507812 -19.375 12.757812 -19.128906 13.96875 -18.640625 C 15.1875 -18.160156 16.28125 -17.4375 17.25 -16.46875 L 10.21875 -9.453125 L 17.25 -2.421875 C 16.28125 -1.453125 15.1875 -0.722656 13.96875 -0.234375 C 12.757812 0.242188 11.507812 0.484375 10.21875 0.484375 C 8.9375 0.484375 7.6875 0.242188 6.46875 -0.234375 C 5.257812 -0.722656 4.171875 -1.453125 3.203125 -2.421875 C 2.234375 -3.390625 1.503906 -4.476562 1.015625 -5.6875 C 0.535156 -6.90625 0.296875 -8.15625 0.296875 -9.4375 C 0.296875 -10.726562 0.535156 -11.976562 1.015625 -13.1875 C 1.503906 -14.40625 2.234375 -15.5 3.203125 -16.46875 Z M 3.203125 -16.46875 "/></g></g></g><g fill="#5e17eb" fill-opacity="1"><g transform="translate(59.053943, 23.555453)"><g><path d="M 0.8125 -18.875 L 19.296875 -18.875 L 12.234375 -9.4375 L 19.296875 0.03125 L 0.8125 0.03125 Z M 0.8125 -18.875 "/></g></g></g><g fill="#5e17eb" fill-opacity="1"><g transform="translate(78.428616, 23.555453)"><g><path d="M 3.578125 -5.4375 C 4.460938 -5.4375 5.207031 -5.148438 5.8125 -4.578125 C 6.414062 -4.003906 6.71875 -3.296875 6.71875 -2.453125 C 6.71875 -1.953125 6.578125 -1.484375 6.296875 -1.046875 C 6.015625 -0.617188 5.640625 -0.273438 5.171875 -0.015625 C 4.703125 0.242188 4.171875 0.375 3.578125 0.375 C 3.046875 0.375 2.550781 0.242188 2.09375 -0.015625 C 1.632812 -0.273438 1.265625 -0.617188 0.984375 -1.046875 C 0.703125 -1.484375 0.5625 -1.953125 0.5625 -2.453125 C 0.5625 -3.003906 0.703125 -3.503906 0.984375 -3.953125 C 1.265625 -4.410156 1.632812 -4.769531 2.09375 -5.03125 C 2.550781 -5.300781 3.046875 -5.4375 3.578125 -5.4375 Z M 3.578125 -5.4375 "/></g></g></g><g fill="#5e17eb" fill-opacity="1"><g transform="translate(85.75812, 23.555453)"><g><path d="M -0.75 0 L 11.15625 -20.1875 L 23.078125 0 Z M -0.75 0 "/></g></g></g><g fill="#5e17eb" fill-opacity="1"><g transform="translate(107.989143, 23.555453)"><g><path d="M 0.78125 -18.875 L 10.59375 -18.875 L 10.59375 0 L 0.78125 0 Z M 0.78125 -18.875 "/></g></g></g></svg>