<svg xmlns="http://www.w3.org/2000/svg" xmlns:xlink="http://www.w3.org/1999/xlink" width="160" zoomAndPan="magnify" viewBox="0 0 120 34.499999" height="46" preserveAspectRatio="xMidYMid meet" version="1.0"><defs><g/><clipPath id="4cc717f94f"><path d="M 0.855469 0 L 119.140625 0 L 119.140625 34.007812 L 0.855469 34.007812 Z M 0.855469 0 " clip-rule="nonzero"/></clipPath><clipPath id="58f1196bf5"><path d="M 1.347656 1 L 36.09375 1 L 36.09375 33 L 1.347656 33 Z M 1.347656 1 " clip-rule="nonzero"/></clipPath><clipPath id="60de0b189e"><path d="M 18.46875 1.398438 C 20.367188 0.707031 22.628906 1.199219 24.050781 2.632812 C 27.496094 6.074219 30.933594 9.523438 34.378906 12.964844 C 35.359375 13.941406 35.96875 15.28125 36.039062 16.664062 C 36.09375 18.261719 35.359375 19.828125 34.199219 20.902344 C 30.773438 24.3125 27.386719 27.746094 23.953125 31.148438 C 22.246094 32.800781 19.308594 33.195312 17.390625 31.703125 C 17.386719 30.457031 17.667969 29.195312 18.257812 28.089844 C 18.832031 27.011719 19.910156 26.171875 21.148438 26.054688 C 22.109375 25.921875 23.019531 26.359375 23.976562 26.332031 C 24.648438 26.359375 25.414062 26.183594 25.800781 25.589844 C 26.097656 25.007812 25.898438 24.328125 26.078125 23.71875 C 26.320312 23.445312 26.632812 23.246094 26.914062 23.023438 C 26.839844 22.789062 26.742188 22.558594 26.667969 22.332031 C 27.332031 21.886719 27 21.101562 27.03125 20.453125 C 27.46875 20.078125 28.179688 20.027344 28.472656 19.496094 C 28.457031 18.789062 27.855469 18.296875 27.515625 17.726562 C 27.003906 16.921875 26.3125 15.988281 26.734375 14.996094 C 27.269531 13.339844 27.089844 11.488281 26.273438 9.953125 C 25.46875 8.296875 23.960938 7.070312 22.316406 6.320312 C 20.613281 5.585938 18.769531 5.234375 16.921875 5.144531 C 15.816406 5.085938 14.730469 5.359375 13.648438 5.550781 C 14.347656 4.75 15.128906 4.027344 15.878906 3.257812 C 16.617188 2.472656 17.433594 1.726562 18.46875 1.398438 Z M 3.855469 7.8125 C 2.949219 8.625 3.046875 10.164062 3.96875 10.925781 C 5.398438 12.320312 6.761719 13.78125 8.226562 15.140625 C 8.242188 14.03125 8.296875 12.914062 8.402344 11.8125 C 8.925781 9.289062 10.621094 7.042969 12.929688 5.886719 C 12.292969 5.210938 11.652344 4.539062 10.988281 3.894531 C 10.550781 3.472656 9.992188 3.085938 9.355469 3.140625 C 8.628906 3.117188 8.035156 3.597656 7.558594 4.089844 C 6.332031 5.34375 5.082031 6.566406 3.855469 7.8125 Z M 13.835938 9.675781 C 13.492188 10.039062 13.007812 10.433594 13.160156 11 C 13.503906 11.648438 14.128906 12.089844 14.617188 12.625 C 14.949219 12.929688 15.34375 13.429688 15.855469 13.199219 C 16.480469 12.8125 16.941406 12.230469 17.476562 11.730469 C 17.777344 11.398438 18.230469 11.015625 18.046875 10.507812 C 17.597656 9.828125 16.964844 9.304688 16.394531 8.726562 C 16.089844 8.464844 15.65625 8.046875 15.246094 8.375 C 14.707031 8.742188 14.292969 9.242188 13.835938 9.675781 Z M 2.121094 15.792969 C 1.871094 16.070312 1.519531 16.320312 1.476562 16.722656 C 1.347656 17.558594 2.253906 17.988281 2.707031 18.550781 C 3.226562 18.980469 3.703125 19.882812 4.5 19.597656 C 5.21875 19.160156 5.730469 18.46875 6.339844 17.898438 C 6.65625 17.546875 7.167969 17.066406 6.878906 16.546875 C 6.332031 15.800781 5.621094 15.183594 4.964844 14.53125 C 4.632812 14.171875 4.058594 13.96875 3.640625 14.316406 C 3.082031 14.746094 2.632812 15.308594 2.121094 15.792969 Z M 11.355469 15.5 C 10.109375 16.726562 8.890625 17.984375 7.640625 19.210938 C 7.210938 19.625 6.777344 20.125 6.769531 20.761719 C 6.664062 21.457031 6.949219 22.148438 7.453125 22.628906 C 8.476562 23.660156 9.527344 24.671875 10.539062 25.71875 C 10.972656 26.15625 11.386719 26.636719 11.894531 27.003906 C 12.710938 27.605469 13.933594 27.472656 14.632812 26.753906 C 16.023438 25.375 17.398438 23.980469 18.78125 22.609375 C 19.625 21.808594 19.703125 20.332031 18.84375 19.515625 C 17.503906 18.148438 16.148438 16.789062 14.792969 15.445312 C 14.230469 14.871094 13.414062 14.425781 12.597656 14.675781 C 12.121094 14.808594 11.714844 15.148438 11.355469 15.5 Z M 11.355469 15.5 " clip-rule="nonzero"/></clipPath><linearGradient x1="24.317869" gradientTransform="matrix(0.0691609, 0, 0, 0.0693302, 1.463942, 1.08751)" y1="-29.467176" x2="488.45357" gradientUnits="userSpaceOnUse" y2="474.381161" id="c4cead5810"><stop stop-opacity="1" stop-color="rgb(0%, 8.999634%, 62.69989%)" offset="0"/><stop stop-opacity="1" stop-color="rgb(0%, 8.999634%, 62.69989%)" offset="0.25"/><stop stop-opacity="1" stop-color="rgb(0%, 9.028625%, 62.705994%)" offset="0.3125"/><stop stop-opacity="1" stop-color="rgb(0%, 9.368896%, 62.783813%)" offset="0.316406"/><stop stop-opacity="1" stop-color="rgb(0%, 9.680176%, 62.854004%)" offset="0.320312"/><stop stop-opacity="1" stop-color="rgb(0%, 9.989929%, 62.924194%)" offset="0.324219"/><stop stop-opacity="1" stop-color="rgb(0%, 10.299683%, 62.995911%)" offset="0.328125"/><stop stop-opacity="1" stop-color="rgb(0%, 10.609436%, 63.066101%)" offset="0.332031"/><stop stop-opacity="1" stop-color="rgb(0%, 10.920715%, 63.137817%)" offset="0.335937"/><stop stop-opacity="1" stop-color="rgb(0%, 11.230469%, 63.208008%)" offset="0.339844"/><stop stop-opacity="1" stop-color="rgb(0%, 11.540222%, 63.278198%)" offset="0.34375"/><stop stop-opacity="1" stop-color="rgb(0%, 11.849976%, 63.348389%)" offset="0.347656"/><stop stop-opacity="1" stop-color="rgb(0%, 12.161255%, 63.420105%)" offset="0.351562"/><stop stop-opacity="1" stop-color="rgb(0%, 12.471008%, 63.490295%)" offset="0.355469"/><stop stop-opacity="1" stop-color="rgb(0%, 12.780762%, 63.562012%)" offset="0.359375"/><stop stop-opacity="1" stop-color="rgb(0%, 13.090515%, 63.632202%)" offset="0.363281"/><stop stop-opacity="1" stop-color="rgb(0%, 13.400269%, 63.702393%)" offset="0.367187"/><stop stop-opacity="1" stop-color="rgb(0%, 13.710022%, 63.772583%)" offset="0.371094"/><stop stop-opacity="1" stop-color="rgb(0%, 14.021301%, 63.844299%)" offset="0.375"/><stop stop-opacity="1" stop-color="rgb(0%, 14.331055%, 63.91449%)" offset="0.378906"/><stop stop-opacity="1" stop-color="rgb(0%, 14.640808%, 63.986206%)" offset="0.382812"/><stop stop-opacity="1" stop-color="rgb(0%, 14.950562%, 64.056396%)" offset="0.386719"/><stop stop-opacity="1" stop-color="rgb(0%, 15.261841%, 64.128113%)" offset="0.390625"/><stop stop-opacity="1" stop-color="rgb(0%, 15.571594%, 64.198303%)" offset="0.394531"/><stop stop-opacity="1" stop-color="rgb(0%, 15.881348%, 64.268494%)" offset="0.398437"/><stop stop-opacity="1" stop-color="rgb(0%, 16.191101%, 64.338684%)" offset="0.402344"/><stop stop-opacity="1" stop-color="rgb(0%, 16.50238%, 64.4104%)" offset="0.40625"/><stop stop-opacity="1" stop-color="rgb(0%, 16.812134%, 64.480591%)" offset="0.410156"/><stop stop-opacity="1" stop-color="rgb(0%, 17.121887%, 64.552307%)" offset="0.414062"/><stop stop-opacity="1" stop-color="rgb(0%, 17.431641%, 64.622498%)" offset="0.417969"/><stop stop-opacity="1" stop-color="rgb(0%, 17.74292%, 64.692688%)" offset="0.421875"/><stop stop-opacity="1" stop-color="rgb(0%, 18.052673%, 64.762878%)" offset="0.425781"/><stop stop-opacity="1" stop-color="rgb(0%, 18.362427%, 64.834595%)" offset="0.429687"/><stop stop-opacity="1" stop-color="rgb(0%, 18.67218%, 64.904785%)" offset="0.433594"/><stop stop-opacity="1" stop-color="rgb(0%, 18.983459%, 64.976501%)" offset="0.4375"/><stop stop-opacity="1" stop-color="rgb(0%, 19.293213%, 65.046692%)" offset="0.441406"/><stop stop-opacity="1" stop-color="rgb(0%, 19.602966%, 65.118408%)" offset="0.445312"/><stop stop-opacity="1" stop-color="rgb(0%, 19.91272%, 65.188599%)" offset="0.449219"/><stop stop-opacity="1" stop-color="rgb(0%, 20.223999%, 65.258789%)" offset="0.453125"/><stop stop-opacity="1" stop-color="rgb(0%, 20.533752%, 65.328979%)" offset="0.457031"/><stop stop-opacity="1" stop-color="rgb(0%, 20.843506%, 65.400696%)" offset="0.460937"/><stop stop-opacity="1" stop-color="rgb(0%, 21.153259%, 65.470886%)" offset="0.464844"/><stop stop-opacity="1" stop-color="rgb(0%, 21.463013%, 65.542603%)" offset="0.46875"/><stop stop-opacity="1" stop-color="rgb(0%, 21.772766%, 65.612793%)" offset="0.472656"/><stop stop-opacity="1" stop-color="rgb(0%, 22.084045%, 65.682983%)" offset="0.476562"/><stop stop-opacity="1" stop-color="rgb(0%, 22.393799%, 65.753174%)" offset="0.480469"/><stop stop-opacity="1" stop-color="rgb(0%, 22.703552%, 65.82489%)" offset="0.484375"/><stop stop-opacity="1" stop-color="rgb(0%, 23.013306%, 65.895081%)" offset="0.488281"/><stop stop-opacity="1" stop-color="rgb(0%, 23.324585%, 65.966797%)" offset="0.492187"/><stop stop-opacity="1" stop-color="rgb(0%, 23.634338%, 66.036987%)" offset="0.496094"/><stop stop-opacity="1" stop-color="rgb(0%, 23.944092%, 66.107178%)" offset="0.5"/><stop stop-opacity="1" stop-color="rgb(0%, 24.253845%, 66.177368%)" offset="0.503906"/><stop stop-opacity="1" stop-color="rgb(0%, 24.565125%, 66.249084%)" offset="0.507812"/><stop stop-opacity="1" stop-color="rgb(0%, 24.874878%, 66.319275%)" offset="0.511719"/><stop stop-opacity="1" stop-color="rgb(0%, 25.184631%, 66.390991%)" offset="0.515625"/><stop stop-opacity="1" stop-color="rgb(0%, 25.494385%, 66.461182%)" offset="0.519531"/><stop stop-opacity="1" stop-color="rgb(0%, 25.805664%, 66.532898%)" offset="0.523438"/><stop stop-opacity="1" stop-color="rgb(0%, 26.115417%, 66.603088%)" offset="0.527344"/><stop stop-opacity="1" stop-color="rgb(0%, 26.425171%, 66.673279%)" offset="0.53125"/><stop stop-opacity="1" stop-color="rgb(0%, 26.734924%, 66.743469%)" offset="0.535156"/><stop stop-opacity="1" stop-color="rgb(0%, 27.046204%, 66.815186%)" offset="0.539062"/><stop stop-opacity="1" stop-color="rgb(0%, 27.355957%, 66.885376%)" offset="0.542969"/><stop stop-opacity="1" stop-color="rgb(0%, 27.66571%, 66.957092%)" offset="0.546875"/><stop stop-opacity="1" stop-color="rgb(0%, 27.975464%, 67.027283%)" offset="0.550781"/><stop stop-opacity="1" stop-color="rgb(0%, 28.286743%, 67.097473%)" offset="0.554688"/><stop stop-opacity="1" stop-color="rgb(0%, 28.596497%, 67.167664%)" offset="0.558594"/><stop stop-opacity="1" stop-color="rgb(0%, 28.90625%, 67.23938%)" offset="0.5625"/><stop stop-opacity="1" stop-color="rgb(0%, 29.216003%, 67.30957%)" offset="0.566406"/><stop stop-opacity="1" stop-color="rgb(0%, 29.525757%, 67.381287%)" offset="0.570312"/><stop stop-opacity="1" stop-color="rgb(0%, 29.83551%, 67.451477%)" offset="0.574219"/><stop stop-opacity="1" stop-color="rgb(0%, 30.14679%, 67.521667%)" offset="0.578125"/><stop stop-opacity="1" stop-color="rgb(0%, 30.456543%, 67.591858%)" offset="0.582031"/><stop stop-opacity="1" stop-color="rgb(0%, 30.766296%, 67.663574%)" offset="0.585938"/><stop stop-opacity="1" stop-color="rgb(0%, 31.07605%, 67.733765%)" offset="0.589844"/><stop stop-opacity="1" stop-color="rgb(0%, 31.387329%, 67.805481%)" offset="0.59375"/><stop stop-opacity="1" stop-color="rgb(0%, 31.697083%, 67.875671%)" offset="0.597656"/><stop stop-opacity="1" stop-color="rgb(0%, 32.006836%, 67.947388%)" offset="0.601562"/><stop stop-opacity="1" stop-color="rgb(0%, 32.316589%, 68.017578%)" offset="0.605469"/><stop stop-opacity="1" stop-color="rgb(0%, 32.627869%, 68.087769%)" offset="0.609375"/><stop stop-opacity="1" stop-color="rgb(0%, 32.937622%, 68.157959%)" offset="0.613281"/><stop stop-opacity="1" stop-color="rgb(0%, 33.247375%, 68.229675%)" offset="0.617188"/><stop stop-opacity="1" stop-color="rgb(0%, 33.557129%, 68.299866%)" offset="0.621094"/><stop stop-opacity="1" stop-color="rgb(0%, 33.868408%, 68.371582%)" offset="0.625"/><stop stop-opacity="1" stop-color="rgb(0%, 34.178162%, 68.441772%)" offset="0.628906"/><stop stop-opacity="1" stop-color="rgb(0%, 34.487915%, 68.511963%)" offset="0.632812"/><stop stop-opacity="1" stop-color="rgb(0%, 34.797668%, 68.582153%)" offset="0.636719"/><stop stop-opacity="1" stop-color="rgb(0%, 35.108948%, 68.65387%)" offset="0.640625"/><stop stop-opacity="1" stop-color="rgb(0%, 35.418701%, 68.72406%)" offset="0.644531"/><stop stop-opacity="1" stop-color="rgb(0%, 35.728455%, 68.795776%)" offset="0.648438"/><stop stop-opacity="1" stop-color="rgb(0%, 36.038208%, 68.865967%)" offset="0.652344"/><stop stop-opacity="1" stop-color="rgb(0%, 36.347961%, 68.936157%)" offset="0.65625"/><stop stop-opacity="1" stop-color="rgb(0%, 36.657715%, 69.006348%)" offset="0.660156"/><stop stop-opacity="1" stop-color="rgb(0%, 36.968994%, 69.078064%)" offset="0.664062"/><stop stop-opacity="1" stop-color="rgb(0%, 37.278748%, 69.148254%)" offset="0.667969"/><stop stop-opacity="1" stop-color="rgb(0%, 37.588501%, 69.219971%)" offset="0.671875"/><stop stop-opacity="1" stop-color="rgb(0%, 37.898254%, 69.290161%)" offset="0.675781"/><stop stop-opacity="1" stop-color="rgb(0%, 38.209534%, 69.361877%)" offset="0.679688"/><stop stop-opacity="1" stop-color="rgb(0%, 38.519287%, 69.432068%)" offset="0.683594"/><stop stop-opacity="1" stop-color="rgb(0%, 38.829041%, 69.502258%)" offset="0.6875"/><stop stop-opacity="1" stop-color="rgb(0%, 39.138794%, 69.572449%)" offset="0.691406"/><stop stop-opacity="1" stop-color="rgb(0%, 39.450073%, 69.644165%)" offset="0.695312"/><stop stop-opacity="1" stop-color="rgb(0%, 39.759827%, 69.714355%)" offset="0.699219"/><stop stop-opacity="1" stop-color="rgb(0%, 40.06958%, 69.786072%)" offset="0.703125"/><stop stop-opacity="1" stop-color="rgb(0%, 40.379333%, 69.856262%)" offset="0.707031"/><stop stop-opacity="1" stop-color="rgb(0%, 40.690613%, 69.926453%)" offset="0.710938"/><stop stop-opacity="1" stop-color="rgb(0%, 41.000366%, 69.996643%)" offset="0.714844"/><stop stop-opacity="1" stop-color="rgb(0%, 41.31012%, 70.068359%)" offset="0.71875"/><stop stop-opacity="1" stop-color="rgb(0%, 41.619873%, 70.13855%)" offset="0.722656"/><stop stop-opacity="1" stop-color="rgb(0%, 41.931152%, 70.210266%)" offset="0.726562"/><stop stop-opacity="1" stop-color="rgb(0%, 42.240906%, 70.280457%)" offset="0.730469"/><stop stop-opacity="1" stop-color="rgb(0%, 42.550659%, 70.350647%)" offset="0.734375"/><stop stop-opacity="1" stop-color="rgb(0%, 42.860413%, 70.420837%)" offset="0.738281"/><stop stop-opacity="1" stop-color="rgb(0%, 43.171692%, 70.492554%)" offset="0.742188"/><stop stop-opacity="1" stop-color="rgb(0%, 43.481445%, 70.562744%)" offset="0.746094"/><stop stop-opacity="1" stop-color="rgb(0%, 43.791199%, 70.63446%)" offset="0.75"/><stop stop-opacity="1" stop-color="rgb(0%, 44.100952%, 70.704651%)" offset="0.753906"/><stop stop-opacity="1" stop-color="rgb(0%, 44.410706%, 70.776367%)" offset="0.757812"/><stop stop-opacity="1" stop-color="rgb(0%, 44.720459%, 70.846558%)" offset="0.761719"/><stop stop-opacity="1" stop-color="rgb(0%, 45.031738%, 70.916748%)" offset="0.765625"/><stop stop-opacity="1" stop-color="rgb(0%, 45.341492%, 70.986938%)" offset="0.769531"/><stop stop-opacity="1" stop-color="rgb(0%, 45.651245%, 71.058655%)" offset="0.773438"/><stop stop-opacity="1" stop-color="rgb(0%, 45.960999%, 71.128845%)" offset="0.777344"/><stop stop-opacity="1" stop-color="rgb(0%, 46.272278%, 71.200562%)" offset="0.78125"/><stop stop-opacity="1" stop-color="rgb(0%, 46.582031%, 71.270752%)" offset="0.785156"/><stop stop-opacity="1" stop-color="rgb(0%, 46.891785%, 71.340942%)" offset="0.789062"/><stop stop-opacity="1" stop-color="rgb(0%, 47.201538%, 71.411133%)" offset="0.792969"/><stop stop-opacity="1" stop-color="rgb(0%, 47.512817%, 71.482849%)" offset="0.796875"/><stop stop-opacity="1" stop-color="rgb(0%, 47.822571%, 71.55304%)" offset="0.800781"/><stop stop-opacity="1" stop-color="rgb(0%, 48.132324%, 71.624756%)" offset="0.804687"/><stop stop-opacity="1" stop-color="rgb(0%, 48.442078%, 71.694946%)" offset="0.808594"/><stop stop-opacity="1" stop-color="rgb(0%, 48.753357%, 71.765137%)" offset="0.8125"/><stop stop-opacity="1" stop-color="rgb(0%, 49.06311%, 71.835327%)" offset="0.816406"/><stop stop-opacity="1" stop-color="rgb(0%, 49.372864%, 71.907043%)" offset="0.820312"/><stop stop-opacity="1" stop-color="rgb(0%, 49.682617%, 71.977234%)" offset="0.824219"/><stop stop-opacity="1" stop-color="rgb(0%, 49.993896%, 72.04895%)" offset="0.828125"/><stop stop-opacity="1" stop-color="rgb(0%, 50.30365%, 72.119141%)" offset="0.832031"/><stop stop-opacity="1" stop-color="rgb(0%, 50.613403%, 72.190857%)" offset="0.835937"/><stop stop-opacity="1" stop-color="rgb(0%, 50.923157%, 72.261047%)" offset="0.839844"/><stop stop-opacity="1" stop-color="rgb(0%, 51.234436%, 72.331238%)" offset="0.84375"/><stop stop-opacity="1" stop-color="rgb(0%, 51.544189%, 72.401428%)" offset="0.847656"/><stop stop-opacity="1" stop-color="rgb(0%, 51.853943%, 72.473145%)" offset="0.851562"/><stop stop-opacity="1" stop-color="rgb(0%, 52.163696%, 72.543335%)" offset="0.855469"/><stop stop-opacity="1" stop-color="rgb(0%, 52.47345%, 72.615051%)" offset="0.859375"/><stop stop-opacity="1" stop-color="rgb(0%, 52.783203%, 72.685242%)" offset="0.863281"/><stop stop-opacity="1" stop-color="rgb(0%, 53.094482%, 72.755432%)" offset="0.867187"/><stop stop-opacity="1" stop-color="rgb(0%, 53.404236%, 72.825623%)" offset="0.871094"/><stop stop-opacity="1" stop-color="rgb(0%, 53.713989%, 72.897339%)" offset="0.875"/><stop stop-opacity="1" stop-color="rgb(0%, 54.023743%, 72.967529%)" offset="0.878906"/><stop stop-opacity="1" stop-color="rgb(0%, 54.335022%, 73.039246%)" offset="0.882812"/><stop stop-opacity="1" stop-color="rgb(0%, 54.644775%, 73.109436%)" offset="0.886719"/><stop stop-opacity="1" stop-color="rgb(0%, 54.954529%, 73.179626%)" offset="0.890625"/><stop stop-opacity="1" stop-color="rgb(0%, 55.264282%, 73.249817%)" offset="0.894531"/><stop stop-opacity="1" stop-color="rgb(0%, 55.575562%, 73.321533%)" offset="0.898437"/><stop stop-opacity="1" stop-color="rgb(0%, 55.885315%, 73.391724%)" offset="0.902344"/><stop stop-opacity="1" stop-color="rgb(0%, 56.195068%, 73.46344%)" offset="0.90625"/><stop stop-opacity="1" stop-color="rgb(0%, 56.504822%, 73.53363%)" offset="0.910156"/><stop stop-opacity="1" stop-color="rgb(0%, 56.816101%, 73.605347%)" offset="0.914062"/><stop stop-opacity="1" stop-color="rgb(0%, 57.125854%, 73.675537%)" offset="0.917969"/><stop stop-opacity="1" stop-color="rgb(0%, 57.435608%, 73.745728%)" offset="0.921875"/><stop stop-opacity="1" stop-color="rgb(0%, 57.745361%, 73.815918%)" offset="0.925781"/><stop stop-opacity="1" stop-color="rgb(0%, 58.056641%, 73.887634%)" offset="0.929687"/><stop stop-opacity="1" stop-color="rgb(0%, 58.366394%, 73.957825%)" offset="0.933594"/><stop stop-opacity="1" stop-color="rgb(0%, 58.676147%, 74.029541%)" offset="0.9375"/><stop stop-opacity="1" stop-color="rgb(0%, 58.985901%, 74.099731%)" offset="0.941406"/><stop stop-opacity="1" stop-color="rgb(0%, 59.295654%, 74.169922%)" offset="0.945312"/><stop stop-opacity="1" stop-color="rgb(0%, 59.605408%, 74.240112%)" offset="0.949219"/><stop stop-opacity="1" stop-color="rgb(0%, 59.916687%, 74.311829%)" offset="0.953125"/><stop stop-opacity="1" stop-color="rgb(0%, 60.22644%, 74.382019%)" offset="0.957031"/><stop stop-opacity="1" stop-color="rgb(0%, 60.536194%, 74.453735%)" offset="0.960937"/><stop stop-opacity="1" stop-color="rgb(0%, 60.845947%, 74.523926%)" offset="0.964844"/><stop stop-opacity="1" stop-color="rgb(0%, 61.157227%, 74.594116%)" offset="0.96875"/><stop stop-opacity="1" stop-color="rgb(0%, 61.46698%, 74.664307%)" offset="0.972656"/><stop stop-opacity="1" stop-color="rgb(0%, 61.776733%, 74.736023%)" offset="0.976562"/><stop stop-opacity="1" stop-color="rgb(0%, 62.086487%, 74.806213%)" offset="0.980469"/><stop stop-opacity="1" stop-color="rgb(0%, 62.397766%, 74.87793%)" offset="0.984375"/><stop stop-opacity="1" stop-color="rgb(0%, 62.70752%, 74.94812%)" offset="0.988281"/><stop stop-opacity="1" stop-color="rgb(0%, 63.017273%, 75.019836%)" offset="0.992188"/><stop stop-opacity="1" stop-color="rgb(0%, 63.327026%, 75.090027%)" offset="0.996094"/><stop stop-opacity="1" stop-color="rgb(0%, 63.638306%, 75.160217%)" offset="1"/></linearGradient></defs><g clip-path="url(#4cc717f94f)"><path fill="#ffffff" d="M 0.855469 0 L 119.144531 0 L 119.144531 34.007812 L 0.855469 34.007812 Z M 0.855469 0 " fill-opacity="1" fill-rule="nonzero"/><path fill="#ffffff" d="M 0.855469 0 L 119.144531 0 L 119.144531 34.007812 L 0.855469 34.007812 Z M 0.855469 0 " fill-opacity="1" fill-rule="nonzero"/></g><g clip-path="url(#58f1196bf5)"><g clip-path="url(#60de0b189e)"><path fill="url(#c4cead5810)" d="M 1.347656 0.707031 L 1.347656 33.195312 L 36.09375 33.195312 L 36.09375 0.707031 Z M 1.347656 0.707031 " fill-rule="nonzero"/></g></g><g fill="#263151" fill-opacity="1"><g transform="translate(41.133991, 22.795916)"><g><path d="M 1.078125 0 L 1.078125 -11.375 L 3.90625 -11.375 L 6.84375 -4.46875 L 9.765625 -11.375 L 12.578125 -11.375 L 12.578125 0 L 9.890625 0 L 9.890625 -6.25 L 7.515625 -0.5 L 6.15625 -0.5 L 3.765625 -6.25 L 3.765625 0 Z M 1.078125 0 "/></g></g></g><g fill="#263151" fill-opacity="1"><g transform="translate(56.345764, 22.795916)"><g><path d="M 2.484375 0 L 0.765625 -1.71875 L 0.765625 -9.65625 L 2.484375 -11.375 L 9.15625 -11.375 L 10.875 -9.65625 L 10.875 -1.71875 L 9.15625 0 Z M 4.21875 -2.1875 L 7.453125 -2.1875 L 8 -2.734375 L 8 -8.640625 L 7.421875 -9.1875 L 4.21875 -9.1875 L 3.65625 -8.640625 L 3.65625 -2.734375 Z M 4.21875 -2.1875 "/></g></g></g><g fill="#263151" fill-opacity="1"><g transform="translate(69.534493, 22.795916)"><g><path d="M 2.484375 0 L 0.765625 -1.71875 L 0.765625 -9.65625 L 2.484375 -11.375 L 8.34375 -11.375 L 10.0625 -9.65625 L 10.0625 -7.359375 L 7.25 -7.359375 L 7.25 -8.640625 L 6.703125 -9.1875 L 4.21875 -9.1875 L 3.65625 -8.640625 L 3.65625 -2.734375 L 4.21875 -2.1875 L 6.796875 -2.1875 L 7.359375 -2.734375 L 7.359375 -4.03125 L 10.15625 -4.03125 L 10.15625 -1.71875 L 8.4375 0 Z M 2.484375 0 "/></g></g></g><g fill="#263151" fill-opacity="1"><g transform="translate(81.425998, 22.795916)"><g><path d="M 1.078125 0 L 1.078125 -11.375 L 3.96875 -11.375 L 3.96875 -6.859375 L 7.484375 -11.375 L 10.6875 -11.375 L 6.671875 -6.421875 L 10.6875 0 L 7.609375 0 L 5.046875 -4.40625 L 3.96875 -3.078125 L 3.96875 0 Z M 1.078125 0 "/></g></g></g><g fill="#263151" fill-opacity="1"><g transform="translate(93.657253, 22.795916)"><g><path d="M 1 0 L 1 -2.421875 L 3.609375 -2.421875 L 3.609375 0 Z M 1 0 "/></g></g></g><g fill="#263151" fill-opacity="1"><g transform="translate(99.9738, 22.795916)"><g><path d="M 0 0 L 3.328125 -11.375 L 8.03125 -11.375 L 11.359375 0 L 8.3125 0 L 7.734375 -2.265625 L 3.625 -2.265625 L 3.0625 0 Z M 4.203125 -4.5 L 7.15625 -4.5 L 5.953125 -9.203125 L 5.40625 -9.203125 Z M 4.203125 -4.5 "/></g></g></g><g fill="#263151" fill-opacity="1"><g transform="translate(112.884552, 22.795916)"><g><path d="M 0.625 0 L 0.625 -2.171875 L 1.890625 -2.171875 L 1.859375 -9.203125 L 0.625 -9.203125 L 0.625 -11.375 L 5.859375 -11.375 L 5.859375 -9.203125 L 4.609375 -9.203125 L 4.578125 -2.171875 L 5.859375 -2.171875 L 5.859375 0 Z M 0.625 0 "/></g></g></g></svg>